<?xml version="1.0" standalone="no"?>
<!DOCTYPE svg PUBLIC "-//W3C//DTD SVG 20010904//EN"
 "http://www.w3.org/TR/2001/REC-SVG-20010904/DTD/svg10.dtd">
<svg version="1.0" xmlns="http://www.w3.org/2000/svg"
 width="1024.000000pt" height="1024.000000pt" viewBox="0 0 1024.000000 1024.000000"
 preserveAspectRatio="xMidYMid meet">
<metadata>
Created by potrace 1.11, written by Peter Selinger 2001-2013
</metadata>
<g transform="translate(0.000000,1024.000000) scale(0.100000,-0.100000)"
fill="#000000" stroke="none">
<path d="M6757 8114 c-1 -1 -42 -5 -92 -8 -49 -4 -108 -9 -130 -11 -22 -3 -75
-7 -117 -10 -156 -10 -234 -16 -283 -20 -47 -4 -130 -9 -305 -20 -41 -2 -158
-7 -260 -10 -184 -5 -297 -11 -377 -20 -131 -15 -193 -23 -235 -31 -15 -3 -40
-7 -55 -9 -152 -19 -493 -122 -648 -196 -410 -195 -699 -500 -855 -906 -71
-184 -107 -370 -90 -458 6 -29 7 -29 22 20 103 325 340 662 608 864 305 231
748 390 1190 427 36 3 74 7 85 9 11 2 67 7 125 10 58 4 111 8 118 11 7 2 10
-1 7 -6 -3 -6 -15 -10 -25 -10 -51 0 -579 -136 -614 -158 -6 -3 -15 -7 -21 -8
-5 -1 -53 -19 -105 -39 -411 -163 -798 -454 -1048 -790 -99 -133 -209 -353
-257 -513 l-15 -47 -92 -22 c-264 -64 -495 -216 -616 -407 -30 -47 -122 -230
-122 -243 0 -4 -7 -21 -15 -37 -14 -27 -70 -203 -94 -296 -45 -172 -51 -456
-16 -678 12 -78 16 -99 36 -182 83 -360 227 -603 521 -885 189 -182 447 -336
783 -468 192 -75 380 -129 500 -143 33 -3 62 -8 65 -9 3 -2 39 -6 80 -10 41
-4 77 -8 80 -10 3 -2 52 -6 110 -10 58 -4 116 -9 130 -10 14 -2 31 -3 37 -4
26 -2 174 -137 467 -424 89 -86 171 -160 183 -163 64 -17 79 24 39 109 -14 29
-29 81 -35 117 -12 78 -13 268 -1 331 5 24 11 63 14 84 3 22 11 74 20 115 15
76 19 106 31 195 4 28 9 61 12 75 10 51 12 407 2 470 -5 36 -11 79 -14 95 -9
70 -57 229 -94 312 -59 135 -171 334 -243 431 -106 143 -227 259 -373 357 -83
55 -96 63 -230 135 l-80 42 54 -48 c173 -155 362 -373 443 -509 102 -171 215
-443 232 -558 4 -27 10 -59 12 -70 7 -34 16 -392 9 -385 -6 6 -9 18 -26 113
-16 92 -55 227 -104 365 -29 78 -98 222 -144 300 -37 63 -163 243 -181 260 -3
3 -34 43 -70 90 -95 125 -97 127 -195 228 -49 51 -116 111 -148 135 -52 37
-57 45 -51 70 5 25 23 69 43 107 5 9 14 43 22 75 7 33 14 62 16 64 1 2 11 -5
20 -16 39 -43 240 -156 403 -226 19 -8 58 -25 85 -37 391 -175 492 -211 830
-295 164 -41 289 -63 400 -72 162 -14 559 -6 654 12 13 2 56 9 96 14 64 9 107
18 188 37 9 2 27 6 38 9 12 2 90 25 173 49 225 67 377 98 486 102 52 1 98 3
103 3 16 2 5 41 -39 131 -25 52 -75 154 -109 225 -170 350 -274 496 -435 615
-30 23 -63 47 -72 55 -9 7 -27 19 -40 26 -13 6 -25 15 -28 19 -11 15 -211 118
-296 152 -146 59 -363 117 -494 132 -119 15 -153 17 -255 16 -215 -1 -366 -13
-565 -45 -154 -26 -474 -121 -607 -181 -168 -76 -300 -145 -394 -206 -59 -38
-89 -68 -53 -54 10 5 33 12 49 18 17 5 39 14 50 18 26 12 228 81 330 113 173
55 251 74 378 92 20 3 53 7 73 10 190 27 576 27 774 1 95 -13 139 -21 248 -47
309 -75 571 -219 760 -419 45 -46 132 -162 132 -174 0 -4 -35 16 -77 45 -43
29 -90 61 -105 71 -53 35 -214 116 -303 151 -147 59 -373 112 -555 131 -30 4
-75 8 -100 11 -112 12 -463 28 -610 28 -73 0 -266 -12 -320 -19 -19 -3 -48 -6
-65 -8 -185 -23 -475 -89 -663 -152 -77 -26 -91 -24 -92 15 0 7 -18 51 -40 98
-33 72 -55 101 -130 176 -49 49 -90 91 -90 93 0 2 10 4 23 4 12 0 65 9 117 21
52 11 106 22 120 25 192 38 540 147 685 214 22 10 65 28 95 41 30 13 105 49
167 81 411 211 684 459 828 753 195 396 475 731 726 865 59 31 83 65 67 93 -8
15 -23 17 -94 15 -47 -2 -86 -3 -87 -4z m-2995 -2143 c116 -32 179 -57 244
-100 98 -64 156 -129 203 -232 49 -104 65 -180 65 -314 1 -103 -3 -128 -22
-177 -42 -103 -132 -219 -217 -277 -113 -79 -262 -87 -367 -21 -26 16 -63 32
-82 36 -29 5 -39 2 -61 -20 -21 -21 -25 -33 -20 -54 10 -40 31 -59 89 -81 107
-40 200 -45 333 -17 l23 5 -24 -47 c-24 -48 -62 -161 -72 -216 -19 -106 -22
-149 -19 -311 3 -206 4 -209 44 -331 67 -204 211 -420 424 -638 l97 -98 -63 6
c-182 20 -569 144 -757 243 -144 76 -294 196 -486 390 -180 181 -328 482 -389
793 -23 115 -23 433 0 520 2 8 6 35 9 60 18 143 95 366 177 510 15 26 101 137
141 181 42 46 152 126 216 157 34 17 62 29 62 28 0 -1 30 6 68 16 89 24 273
19 384 -11z"/>
<path d="M6960 3542 c-102 -12 -208 -48 -376 -128 -54 -26 -101 -48 -104 -49
-3 -1 -35 -16 -72 -33 -90 -41 -336 -120 -538 -172 -91 -24 -171 -43 -178 -43
-17 0 -53 -147 -68 -275 l-6 -44 49 6 c85 12 216 35 394 72 96 19 185 37 199
40 198 38 872 289 966 359 124 94 7 253 -196 267 -25 2 -56 2 -70 0z"/>
<path d="M5965 2588 c-49 -17 -112 -75 -135 -124 -35 -71 -32 -167 7 -236 97
-172 333 -168 426 7 72 135 -1 314 -144 355 -43 13 -115 12 -154 -2z m144 -34
c39 -8 81 -43 112 -92 34 -54 39 -135 13 -198 -40 -94 -152 -146 -249 -114
-144 47 -188 244 -79 353 56 56 115 71 203 51z"/>
<path d="M5974 2482 c-5 -4 -10 -62 -9 -132 0 -118 1 -125 20 -128 19 -3 21 2
20 53 -1 53 0 55 25 55 21 0 30 -9 53 -55 19 -39 33 -55 46 -55 19 0 19 2 -3
51 -13 27 -26 53 -30 56 -3 3 6 14 19 25 18 14 25 29 25 54 0 34 -27 73 -52
75 -62 6 -106 6 -114 1z m111 -42 c18 -15 20 -51 3 -68 -7 -7 -29 -12 -50 -12
l-38 0 0 43 c0 24 2 46 5 48 9 9 66 1 80 -11z"/>
</g>
</svg>
