<svg xmlns="http://www.w3.org/2000/svg" width="135" height="36" fill="none" viewBox="0 0 135 36">
    <path fill="currentColor" d="M7.125 29.68h15.984V35H.516V.875h6.609V29.68zm53.746-9.235c0 2.188-.29 4.203-.867 6.047-.578 1.844-1.414 3.43-2.508 4.758a11.542 11.542 0 0 1-4.008 3.117c-1.562.735-3.328 1.102-5.297 1.102-1.969 0-3.719-.367-5.25-1.102a11.047 11.047 0 0 1-3.867-3.117c-1.047-1.344-1.844-2.93-2.39-4.758-.547-1.844-.82-3.86-.82-6.047v-4.968c0-2.188.273-4.204.82-6.047.546-1.844 1.343-3.43 2.39-4.758a11 11 0 0 1 3.844-3.14c1.531-.75 3.281-1.126 5.25-1.126 1.984 0 3.758.375 5.32 1.125a11.424 11.424 0 0 1 4.008 3.14C58.59 6 59.426 7.587 60.004 9.43c.578 1.843.867 3.86.867 6.047v4.968zm-6.68-5.015c0-1.39-.117-2.672-.351-3.844-.22-1.172-.57-2.18-1.055-3.024-.484-.843-1.11-1.5-1.875-1.968-.75-.485-1.664-.727-2.742-.727-1.063 0-1.953.242-2.672.727-.719.468-1.297 1.125-1.734 1.968-.438.844-.75 1.852-.938 3.024a24.395 24.395 0 0 0-.281 3.844v5.015c0 1.375.094 2.649.281 3.82.188 1.172.5 2.188.938 3.047.437.86 1.015 1.532 1.734 2.016.719.485 1.617.727 2.695.727 1.063 0 1.969-.242 2.719-.727.766-.484 1.383-1.148 1.852-1.992.484-.86.843-1.875 1.078-3.047.234-1.172.351-2.453.351-3.844V15.43zm43.316 15.586c-.421.515-1 1.039-1.734 1.57-.734.531-1.61 1.016-2.625 1.453-1 .422-2.125.766-3.375 1.031a19.38 19.38 0 0 1-4.031.399c-1.938 0-3.688-.344-5.25-1.032a11.081 11.081 0 0 1-4.008-2.976c-1.11-1.297-1.969-2.883-2.578-4.758-.594-1.89-.89-4.031-.89-6.422v-4.64c0-2.391.312-4.524.937-6.399.64-1.89 1.515-3.492 2.625-4.805 1.125-1.312 2.437-2.312 3.937-3C82.031.75 83.672.407 85.437.407c1.922 0 3.594.241 5.016.726 1.437.484 2.648 1.187 3.633 2.11.984.905 1.75 2.015 2.296 3.327.563 1.313.93 2.79 1.102 4.43h-6.422c-.219-1.75-.75-3.063-1.594-3.938-.828-.89-2.117-1.335-3.867-1.335-.844 0-1.625.218-2.344.656-.718.422-1.343 1.047-1.875 1.875-.53.828-.953 1.86-1.265 3.094-.313 1.218-.469 2.632-.469 4.242v4.687c.016 3.188.547 5.633 1.594 7.336 1.047 1.688 2.648 2.54 4.805 2.555a9.856 9.856 0 0 0 2.93-.445c.437-.141.82-.297 1.148-.47.343-.187.601-.382.773-.585l.024-6.188h-5.649v-4.922h12.211l.023 13.454zm37.34-10.57c0 2.187-.289 4.202-.867 6.046-.578 1.844-1.414 3.43-2.508 4.758a11.547 11.547 0 0 1-4.008 3.117c-1.562.735-3.328 1.102-5.297 1.102-1.968 0-3.718-.367-5.25-1.102a11.05 11.05 0 0 1-3.867-3.117c-1.047-1.344-1.843-2.93-2.39-4.758-.547-1.844-.821-3.86-.821-6.047v-4.968c0-2.188.274-4.204.821-6.047.547-1.844 1.343-3.43 2.39-4.758a10.998 10.998 0 0 1 3.844-3.14c1.531-.75 3.281-1.126 5.25-1.126 1.984 0 3.758.375 5.32 1.125a11.428 11.428 0 0 1 4.008 3.14c1.094 1.329 1.93 2.915 2.508 4.759.578 1.843.867 3.86.867 6.047v4.968zm-6.68-5.016c0-1.39-.117-2.672-.351-3.844-.219-1.172-.57-2.18-1.055-3.024-.484-.843-1.109-1.5-1.875-1.968-.75-.485-1.664-.727-2.742-.727-1.062 0-1.953.242-2.672.727-.719.468-1.297 1.125-1.734 1.968-.438.844-.75 1.852-.938 3.024a24.456 24.456 0 0 0-.281 3.844v5.015c0 1.375.094 2.649.281 3.82.188 1.172.5 2.188.938 3.047.437.86 1.015 1.532 1.734 2.016.719.485 1.617.727 2.695.727 1.063 0 1.969-.242 2.719-.727.766-.484 1.383-1.148 1.852-1.992.484-.86.844-1.875 1.078-3.047.234-1.172.351-2.453.351-3.844V15.43z"/>
</svg>
