
<svg version="1.0" xmlns="http://www.w3.org/2000/svg" width="1365.333" height="1365.333" viewBox="0 0 1024 1024"><path d="M409 87.7v87.8l40.2 40.2 40.3 40.3-25.5 25.5-25.5 25.5H0v717h717V585.5l25.5-25.5 25.5-25.5 40.3 40.3 40.2 40.2H1024V0H409v87.7zM922 307v205h-30.5l-61.7-61.7-61.8-61.8-153.8 153.8L460.5 696l-66.3-66.2-66.2-66.3 153.7-153.7L635.5 256l-61.8-61.8-61.7-61.7V102h410v205zM337 409.8c0 .4-34.4 35.1-76.5 77.2L184 563.5l138.2 138.2L460.5 840l76.5-76.5c42.1-42.1 76.8-76.5 77.3-76.5.4 0 .7 52.9.7 117.5V922H102V409h117.5c64.6 0 117.5.3 117.5.8z"/></svg>
